<?xml version="1.0" encoding="utf-8"?><svg version="1.1" id="Layer_1" xmlns="http://www.w3.org/2000/svg" xmlns:xlink="http://www.w3.org/1999/xlink" x="0px" y="0px" viewBox="437.7 -120.9 751 259.3" style="enable-background:new 437.7 -120.9 751 259.3;" xml:space="preserve"><style type="text/css"> .st0{fill:#F16921;} .st1{fill:#1B2654;} .st2{fill:#006B39;} .st3{fill:#FEBE10;} .st4{fill:#FFFFFF;} .st5{font-family:'MyriadPro-Bold';} .st6{font-size:140.4843px;}</style><path class="st0" d="M751.3-118.5L733,4.3l122.8,18.4C855.8,22.7,872-92.9,751.3-118.5"/><path class="st1" d="M719.7,13.2L701.3,136c0,0-112.4-15.7-104.5-141.2L719.7,13.2z"/><path class="st2" d="M731.4,14.9l122.8,18.4c0,0-15,114.7-141.2,104.5L731.4,14.9z"/><path class="st3" d="M739.7-120.2L721.3,2.6L598.5-15.8C598.5-15.8,617.8-130.9,739.7-120.2"/><g><path d="M717,78.8c39.1,5.8,75.5-21.1,81.3-60.2s-21.1-75.5-60.2-81.3c-39.1-5.8-75.5,21.1-81.3,60.2C651,36.5,677.9,72.9,717,78.8 "/></g><g><g><path id="SVGID_1_" class="st4" d="M664.8-1.7c-5.2,34.7,18.8,67.1,53.5,72.3s67.1-18.8,72.3-53.5c5.2-34.7-18.8-67.1-53.5-72.3 c-3.2-0.5-6.4-0.7-9.5-0.7C696.6-55.9,669.5-33.3,664.8-1.7"/></g></g><text transform="matrix(0.989 0.1478 -0.1478 0.989 674.8956 45.6388)" class="st5 st6">4</text><g><path d="M522.4,53.8c-6.7,2.3-19.4,5.4-32.1,5.4c-17.5,0-30.2-4.4-39.1-13c-8.8-8.3-13.7-20.8-13.5-34.9 c0.1-31.9,23.4-50.2,54.9-50.2c12.4,0,22,2.4,26.7,4.7l-4.6,17.4c-5.3-2.3-11.8-4.1-22.4-4.1c-18.1,0-31.8,10.3-31.8,31.1 c0,19.8,12.4,31.5,30.2,31.5c5,0,9-0.6,10.7-1.4V20.2h-14.8v-17h35.8C522.4,3.2,522.4,53.8,522.4,53.8z"/><path d="M627.3,9.1c0,31.5-19.1,50.6-47.2,50.6c-28.5,0-45.2-21.5-45.2-48.9c0-28.8,18.4-50.3,46.8-50.3 C611.2-39.5,627.3-17.4,627.3,9.1z M557.9,10.4c0,18.8,8.8,32.1,23.4,32.1c14.7,0,23.1-14,23.1-32.6c0-17.2-8.3-32.1-23.2-32.1 C566.5-22.2,557.9-8.3,557.9,10.4z"/></g><g><path d="M841.4,35.8c5.8,3,14.8,6,24.1,6c10,0,15.3-4.1,15.3-10.4c0-6-4.6-9.4-16.1-13.5c-16-5.6-26.4-14.4-26.4-28.4 c0-16.4,13.7-28.9,36.4-28.9c10.8,0,18.8,2.3,24.5,4.8l-4.8,17.5c-3.8-1.9-10.7-4.6-20.1-4.6c-9.4,0-14,4.3-14,9.3 c0,6.1,5.4,8.8,17.8,13.5c17,6.3,24.9,15.1,24.9,28.7c0,16.1-12.4,29.8-38.8,29.8c-11,0-21.8-2.9-27.2-5.8L841.4,35.8z"/><path d="M917.7-37.9h21.8v77.8h38.2v18.2h-60V-37.9z"/><path d="M1013.8,33.5l-6.8,24.7h-22.5l29.4-96.1h28.5l29.8,96.1h-23.4l-7.4-24.7H1013.8z M1038.2,17.3l-6-20.4 c-1.7-5.7-3.4-12.8-4.8-18.5h-0.4c-1.4,5.7-2.9,13-4.4,18.5l-5.7,20.4H1038.2z"/><path d="M1166.2,21.4c-0.4-11.5-0.9-25.5-0.9-39.5h-0.4c-3,12.3-7,25.9-10.7,37.2l-11.7,37.5h-17l-10.3-37.2 c-3.1-11.3-6.4-24.9-8.7-37.5h-0.3c-0.6,13-1,27.8-1.7,39.8l-1.7,36.5h-20.1l6.1-96.1h28.9l9.4,32.1c3,11.1,6,23.1,8.1,34.4h0.4 c2.7-11.1,6-23.8,9.1-34.5l10.3-31.9h28.4l5.3,96.1h-21.2L1166.2,21.4z"/></g></svg>