<?xml version="1.0" encoding="utf-8"?>
<!-- Generator: Adobe Illustrator 16.0.0, SVG Export Plug-In . SVG Version: 6.00 Build 0)  -->
<!DOCTYPE svg PUBLIC "-//W3C//DTD SVG 1.1//EN" "http://www.w3.org/Graphics/SVG/1.1/DTD/svg11.dtd">
<svg version="1.1" id="Layer_1" xmlns="http://www.w3.org/2000/svg" xmlns:xlink="http://www.w3.org/1999/xlink" x="0px" y="0px"
	 width="795px" height="309px" viewBox="0 0 795 309" enable-background="new 0 0 795 309" xml:space="preserve">
<path fill="#F16921" d="M334.309,26.539l-18.356,122.826l122.824,18.356C438.777,167.721,454.969,52.149,334.309,26.539"/>
<path fill="#1B2654" d="M302.724,158.211l-18.356,122.826c0,0-112.397-15.716-104.471-141.183L302.724,158.211z"/>
<path fill="#006B39" d="M314.369,159.953l122.825,18.355c0,0-14.971,114.671-141.181,104.47L314.369,159.953z"/>
<path fill="#FEBE10" d="M322.662,24.798l-18.356,122.826L181.48,129.267C181.48,129.267,200.847,14.17,322.662,24.798"/>
<g>
	<path d="M300.006,223.797c39.066,5.839,75.469-21.099,81.307-60.164c5.839-39.067-21.098-75.469-60.164-81.308
		c-39.066-5.838-75.469,21.098-81.307,60.165C234.003,181.556,260.94,217.958,300.006,223.797"/>
</g>
<g>
	<defs>
		<path id="SVGID_1_" d="M247.76,143.277c-5.191,34.726,18.753,67.084,53.479,72.274c34.725,5.189,67.083-18.754,72.273-53.48
			c5.19-34.725-18.754-67.083-53.479-72.273c-3.184-0.475-6.353-0.706-9.477-0.707C279.597,89.089,252.473,111.735,247.76,143.277"
			/>
	</defs>
	<use xlink:href="#SVGID_1_"  overflow="visible" fill="#FFFFFF"/>
	<clipPath id="SVGID_2_">
		<use xlink:href="#SVGID_1_"  overflow="visible"/>
	</clipPath>
</g>
<g>
	<path d="M301.108,197.121l3.219-21.536l-40.017-5.98l2.056-13.756l42.403-49.914l25.844,3.862l-7.912,52.938l10.837,1.619
		l-2.367,15.84l-10.837-1.619l-3.219,21.536L301.108,197.121z M306.694,159.745l2.99-20.009c0.81-5.419,1.918-10.935,3.207-16.708
		l-0.556-0.083c-3.79,5.399-6.94,10.326-10.849,15.566l-15.037,17.923l-0.042,0.278L306.694,159.745z"/>
</g>
<g>
	<path d="M105.413,198.779c-6.7,2.28-19.387,5.417-32.073,5.417c-17.534,0-30.22-4.419-39.058-12.972
		c-8.838-8.269-13.685-20.813-13.542-34.924c0.143-31.931,23.378-50.177,54.881-50.177c12.401,0,21.952,2.423,26.656,4.704
		l-4.562,17.391c-5.274-2.281-11.832-4.134-22.38-4.134c-18.104,0-31.788,10.263-31.788,31.075c0,19.814,12.401,31.503,30.22,31.503
		c4.989,0,8.98-0.57,10.691-1.426v-20.099H69.633v-16.963h35.78V198.779z"/>
	<path d="M210.329,154.162c0,31.503-19.101,50.604-47.183,50.604c-28.51,0-45.188-21.525-45.188-48.894
		c0-28.795,18.389-50.319,46.755-50.319C194.221,105.553,210.329,127.648,210.329,154.162z M140.908,155.445
		c0,18.816,8.838,32.073,23.378,32.073c14.682,0,23.092-13.969,23.092-32.643c0-17.248-8.268-32.073-23.235-32.073
		C149.461,122.801,140.908,136.771,140.908,155.445z"/>
</g>
<g>
	<path d="M424.444,180.818c5.845,2.993,14.825,5.987,24.091,5.987c9.978,0,15.252-4.134,15.252-10.406
		c0-5.987-4.562-9.408-16.107-13.542c-15.966-5.56-26.372-14.397-26.372-28.367c0-16.393,13.685-28.937,36.351-28.937
		c10.833,0,18.815,2.281,24.518,4.847l-4.847,17.533c-3.849-1.853-10.69-4.562-20.099-4.562s-13.97,4.276-13.97,9.266
		c0,6.129,5.416,8.838,17.818,13.542c16.963,6.272,24.945,15.11,24.945,28.652c0,16.108-12.401,29.793-38.772,29.793
		c-10.977,0-21.81-2.852-27.227-5.845L424.444,180.818z"/>
	<path d="M500.708,107.121h21.81v77.831h38.203v18.246h-60.013V107.121z"/>
	<path d="M596.785,178.537l-6.842,24.661H567.42l29.365-96.077h28.51l29.792,96.077h-23.378l-7.412-24.661H596.785z
		 M621.161,162.287l-5.987-20.384c-1.711-5.702-3.421-12.83-4.847-18.531h-0.285c-1.426,5.702-2.851,12.972-4.419,18.531
		l-5.702,20.384H621.161z"/>
	<path d="M749.169,166.421c-0.428-11.546-0.855-25.516-0.855-39.486h-0.428c-2.993,12.259-6.984,25.944-10.69,37.205l-11.689,37.49
		h-16.963l-10.264-37.205c-3.136-11.261-6.414-24.946-8.695-37.49h-0.285c-0.57,12.972-0.998,27.797-1.71,39.771l-1.711,36.492
		h-20.1l6.13-96.077h28.938l9.408,32.073c2.993,11.119,5.986,23.093,8.125,34.354h0.428c2.708-11.119,5.986-23.806,9.123-34.497
		l10.264-31.931h28.366l5.274,96.077h-21.239L749.169,166.421z"/>
</g>
</svg>
